<svg id="visual" viewBox="0 0 900 600" width="900" height="600" xmlns="http://www.w3.org/2000/svg" xmlns:xlink="http://www.w3.org/1999/xlink" version="1.1"><g><g transform="translate(845 368)"><path d="M42.1 -13.3C47.8 3.8 41 25.4 26.7 35.5C12.4 45.6 -9.3 44.2 -25.4 33C-41.4 21.8 -51.8 0.8 -46.6 -15.7C-41.4 -32.1 -20.7 -44 -1.3 -43.6C18.2 -43.2 36.4 -30.4 42.1 -13.3Z" stroke="#0a66c2" fill="none" stroke-width="20"></path></g><g transform="translate(42 229)"><path d="M33.2 -10.3C37.5 2.4 31.6 18.9 19.5 27.9C7.5 36.9 -10.7 38.3 -22 30.2C-33.3 22 -37.6 4.2 -32.7 -9.2C-27.9 -22.6 -14 -31.7 0.3 -31.8C14.5 -31.9 28.9 -23 33.2 -10.3Z" stroke="#0a66c2" fill="none" stroke-width="20"></path></g><g transform="translate(49 424)"><path d="M34.4 -9.5C39.6 4.9 35.4 24 23.4 32.8C11.4 41.7 -8.4 40.3 -20.3 31C-32.2 21.6 -36 4.3 -31.3 -9.3C-26.6 -23 -13.3 -33.1 0.6 -33.3C14.6 -33.5 29.1 -23.8 34.4 -9.5Z" stroke="#0a66c2" fill="none" stroke-width="20"></path></g><g transform="translate(857 563)"><path d="M32.3 -10.2C36.9 3.6 32.2 20.7 20.1 30.1C8 39.5 -11.5 41.1 -25.2 31.8C-38.9 22.6 -46.8 2.4 -41.6 -12.2C-36.4 -26.8 -18.2 -35.8 -2.2 -35.1C13.9 -34.4 27.7 -24 32.3 -10.2Z" stroke="#0a66c2" fill="none" stroke-width="20"></path></g><g transform="translate(609 431)"><path d="M30.8 -10.1C35.7 5.3 32.7 23.1 22.4 30.6C12 38.1 -5.8 35.3 -18.2 26C-30.5 16.8 -37.5 1.2 -33.6 -12.8C-29.6 -26.8 -14.8 -39.1 -1 -38.8C12.9 -38.5 25.8 -25.5 30.8 -10.1Z" stroke="#0a66c2" fill="none" stroke-width="20"></path></g><g transform="translate(783 79)"><path d="M35.3 -11.7C39.6 2 32.9 19.1 19.9 28.8C6.9 38.6 -12.4 41.1 -23.4 32.9C-34.4 24.8 -37.1 5.9 -31.8 -9.1C-26.5 -24.1 -13.2 -35.2 1.1 -35.5C15.4 -35.9 30.9 -25.5 35.3 -11.7Z" stroke="#0a66c2" fill="none" stroke-width="20"></path></g><g transform="translate(503 201)"><path d="M34.2 -11.8C38.9 3.5 33.7 21.3 20.9 31.1C8.2 40.9 -12 42.6 -24.4 33.6C-36.8 24.6 -41.3 4.8 -36 -11.3C-30.6 -27.4 -15.3 -40 -0.3 -39.9C14.7 -39.8 29.4 -27.1 34.2 -11.8Z" stroke="#0a66c2" fill="none" stroke-width="20"></path></g><g transform="translate(400 467)"><path d="M31.8 -12C35.7 1.5 29.4 16.6 18 25C6.5 33.4 -10 34.9 -20.5 27.5C-30.9 20 -35.3 3.6 -30.9 -10.8C-26.5 -25.1 -13.2 -37.3 0.4 -37.4C14 -37.5 28 -25.6 31.8 -12Z" stroke="#0a66c2" fill="none" stroke-width="20"></path></g><g transform="translate(248 133)"><path d="M26.8 -9.9C30.2 1.9 25.4 15.2 15.2 23.1C5 31.1 -10.7 33.7 -20.4 27C-30.1 20.2 -33.8 4 -29.4 -9.1C-25 -22.2 -12.5 -32.3 -0.4 -32.2C11.7 -32 23.3 -21.7 26.8 -9.9Z" stroke="#0a66c2" fill="none" stroke-width="20"></path></g><g transform="translate(162 298)"><path d="M40.3 -14.5C45.1 1.5 36.8 20.4 22.9 30.2C9 40 -10.5 40.7 -24.2 31.2C-37.9 21.8 -45.8 2.2 -40.8 -14.3C-35.8 -30.7 -17.9 -43.9 0 -43.9C17.8 -43.9 35.6 -30.6 40.3 -14.5Z" stroke="#0a66c2" fill="none" stroke-width="20"></path></g></g></svg>