<svg id="visual" viewBox="0 0 900 600" width="900" height="600" xmlns="http://www.w3.org/2000/svg" xmlns:xlink="http://www.w3.org/1999/xlink" version="1.1"><g stroke-width="1" stroke-linejoin="bevel"><path d="M439 302L369 366L461 310Z" fill="#277297" stroke="#277297"></path><path d="M369 366L514 383L461 310Z" fill="#297ea6" stroke="#297ea6"></path><path d="M369 366L364 475L514 383Z" fill="#277297" stroke="#277297"></path><path d="M439 302L308 283L369 366Z" fill="#15384f" stroke="#15384f"></path><path d="M369 366L272 436L364 475Z" fill="#277297" stroke="#277297"></path><path d="M606 501L582 372L514 383Z" fill="#1d4e6b" stroke="#1d4e6b"></path><path d="M514 383L582 372L461 310Z" fill="#205a7a" stroke="#205a7a"></path><path d="M308 283L272 436L369 366Z" fill="#19435d" stroke="#19435d"></path><path d="M400 600L467 535L364 475Z" fill="#112e42" stroke="#112e42"></path><path d="M364 475L467 535L514 383Z" fill="#15384f" stroke="#15384f"></path><path d="M505 190L430 175L439 302Z" fill="#0c2435" stroke="#0c2435"></path><path d="M439 302L430 175L308 283Z" fill="#1d4e6b" stroke="#1d4e6b"></path><path d="M505 190L439 302L461 310Z" fill="#15384f" stroke="#15384f"></path><path d="M617 320L505 190L461 310Z" fill="#19435d" stroke="#19435d"></path><path d="M582 372L617 320L461 310Z" fill="#277297" stroke="#277297"></path><path d="M272 436L283 513L364 475Z" fill="#19435d" stroke="#19435d"></path><path d="M430 175L285 197L308 283Z" fill="#00101c" stroke="#00101c"></path><path d="M188 316L208 435L272 436Z" fill="#081a28" stroke="#081a28"></path><path d="M467 535L606 501L514 383Z" fill="#297ea6" stroke="#297ea6"></path><path d="M720 370L716 337L617 320Z" fill="#297ea6" stroke="#297ea6"></path><path d="M188 316L272 436L308 283Z" fill="#1d4e6b" stroke="#1d4e6b"></path><path d="M272 436L214 487L283 513Z" fill="#297ea6" stroke="#297ea6"></path><path d="M316 600L400 600L364 475Z" fill="#081a28" stroke="#081a28"></path><path d="M467 535L600 600L606 501Z" fill="#277297" stroke="#277297"></path><path d="M400 600L473 600L467 535Z" fill="#081a28" stroke="#081a28"></path><path d="M175 234L188 316L308 283Z" fill="#112e42" stroke="#112e42"></path><path d="M166 600L214 487L87 511Z" fill="#00101c" stroke="#00101c"></path><path d="M208 435L214 487L272 436Z" fill="#112e42" stroke="#112e42"></path><path d="M283 513L316 600L364 475Z" fill="#19435d" stroke="#19435d"></path><path d="M617 320L597 177L505 190Z" fill="#1d4e6b" stroke="#1d4e6b"></path><path d="M505 190L531 117L430 175Z" fill="#297ea6" stroke="#297ea6"></path><path d="M166 600L316 600L283 513Z" fill="#19435d" stroke="#19435d"></path><path d="M597 177L531 117L505 190Z" fill="#00101c" stroke="#00101c"></path><path d="M430 175L360 90L285 197Z" fill="#1d4e6b" stroke="#1d4e6b"></path><path d="M531 117L360 90L430 175Z" fill="#112e42" stroke="#112e42"></path><path d="M285 197L175 234L308 283Z" fill="#277297" stroke="#277297"></path><path d="M163 83L175 234L285 197Z" fill="#205a7a" stroke="#205a7a"></path><path d="M188 316L78 416L208 435Z" fill="#00101c" stroke="#00101c"></path><path d="M720 370L617 320L582 372Z" fill="#277297" stroke="#277297"></path><path d="M617 320L736 223L597 177Z" fill="#1d4e6b" stroke="#1d4e6b"></path><path d="M606 501L720 370L582 372Z" fill="#081a28" stroke="#081a28"></path><path d="M473 600L600 600L467 535Z" fill="#1d4e6b" stroke="#1d4e6b"></path><path d="M606 501L733 499L720 370Z" fill="#277297" stroke="#277297"></path><path d="M704 78L585 111L597 177Z" fill="#297ea6" stroke="#297ea6"></path><path d="M597 177L585 111L531 117Z" fill="#1d4e6b" stroke="#1d4e6b"></path><path d="M517 0L379 0L360 90Z" fill="#277297" stroke="#277297"></path><path d="M360 90L284 93L285 197Z" fill="#205a7a" stroke="#205a7a"></path><path d="M64 164L115 294L175 234Z" fill="#081a28" stroke="#081a28"></path><path d="M175 234L115 294L188 316Z" fill="#00101c" stroke="#00101c"></path><path d="M672 600L733 499L606 501Z" fill="#0c2435" stroke="#0c2435"></path><path d="M716 337L736 223L617 320Z" fill="#19435d" stroke="#19435d"></path><path d="M783 287L736 223L716 337Z" fill="#112e42" stroke="#112e42"></path><path d="M783 287L716 337L720 370Z" fill="#1d4e6b" stroke="#1d4e6b"></path><path d="M600 600L672 600L606 501Z" fill="#19435d" stroke="#19435d"></path><path d="M214 487L166 600L283 513Z" fill="#277297" stroke="#277297"></path><path d="M87 511L214 487L208 435Z" fill="#277297" stroke="#277297"></path><path d="M115 294L78 416L188 316Z" fill="#112e42" stroke="#112e42"></path><path d="M826 418L783 287L720 370Z" fill="#1d4e6b" stroke="#1d4e6b"></path><path d="M360 90L309 0L284 93Z" fill="#19435d" stroke="#19435d"></path><path d="M517 0L360 90L531 117Z" fill="#277297" stroke="#277297"></path><path d="M621 0L517 0L585 111Z" fill="#1d4e6b" stroke="#1d4e6b"></path><path d="M585 111L517 0L531 117Z" fill="#277297" stroke="#277297"></path><path d="M78 416L87 511L208 435Z" fill="#246688" stroke="#246688"></path><path d="M379 0L309 0L360 90Z" fill="#277297" stroke="#277297"></path><path d="M284 93L163 83L285 197Z" fill="#0c2435" stroke="#0c2435"></path><path d="M197 0L163 83L284 93Z" fill="#297ea6" stroke="#297ea6"></path><path d="M115 294L0 369L78 416Z" fill="#1d4e6b" stroke="#1d4e6b"></path><path d="M810 168L704 78L736 223Z" fill="#1d4e6b" stroke="#1d4e6b"></path><path d="M736 223L704 78L597 177Z" fill="#19435d" stroke="#19435d"></path><path d="M87 511L113 600L166 600Z" fill="#205a7a" stroke="#205a7a"></path><path d="M733 499L826 418L720 370Z" fill="#246688" stroke="#246688"></path><path d="M812 489L826 418L733 499Z" fill="#277297" stroke="#277297"></path><path d="M834 600L812 489L733 499Z" fill="#297ea6" stroke="#297ea6"></path><path d="M704 78L621 0L585 111Z" fill="#1d4e6b" stroke="#1d4e6b"></path><path d="M163 83L100 119L175 234Z" fill="#19435d" stroke="#19435d"></path><path d="M100 119L64 164L175 234Z" fill="#0c2435" stroke="#0c2435"></path><path d="M783 287L810 168L736 223Z" fill="#297ea6" stroke="#297ea6"></path><path d="M704 78L730 0L621 0Z" fill="#00101c" stroke="#00101c"></path><path d="M900 184L810 168L783 287Z" fill="#0c2435" stroke="#0c2435"></path><path d="M78 416L0 505L87 511Z" fill="#112e42" stroke="#112e42"></path><path d="M87 511L0 600L113 600Z" fill="#277297" stroke="#277297"></path><path d="M0 260L0 369L115 294Z" fill="#00101c" stroke="#00101c"></path><path d="M309 0L197 0L284 93Z" fill="#205a7a" stroke="#205a7a"></path><path d="M163 83L137 0L100 119Z" fill="#277297" stroke="#277297"></path><path d="M64 164L0 260L115 294Z" fill="#1d4e6b" stroke="#1d4e6b"></path><path d="M0 369L0 505L78 416Z" fill="#205a7a" stroke="#205a7a"></path><path d="M0 113L0 188L64 164Z" fill="#1d4e6b" stroke="#1d4e6b"></path><path d="M64 164L0 188L0 260Z" fill="#00101c" stroke="#00101c"></path><path d="M0 113L64 164L100 119Z" fill="#246688" stroke="#246688"></path><path d="M197 0L137 0L163 83Z" fill="#246688" stroke="#246688"></path><path d="M672 600L834 600L733 499Z" fill="#1d4e6b" stroke="#1d4e6b"></path><path d="M900 499L900 364L826 418Z" fill="#15384f" stroke="#15384f"></path><path d="M900 184L835 124L810 168Z" fill="#246688" stroke="#246688"></path><path d="M810 168L835 124L704 78Z" fill="#246688" stroke="#246688"></path><path d="M900 364L783 287L826 418Z" fill="#1d4e6b" stroke="#1d4e6b"></path><path d="M900 499L826 418L812 489Z" fill="#15384f" stroke="#15384f"></path><path d="M804 0L730 0L704 78Z" fill="#15384f" stroke="#15384f"></path><path d="M900 364L900 319L783 287Z" fill="#15384f" stroke="#15384f"></path><path d="M834 600L900 499L812 489Z" fill="#205a7a" stroke="#205a7a"></path><path d="M0 505L0 600L87 511Z" fill="#205a7a" stroke="#205a7a"></path><path d="M0 0L0 113L100 119Z" fill="#00101c" stroke="#00101c"></path><path d="M900 319L900 184L783 287Z" fill="#1d4e6b" stroke="#1d4e6b"></path><path d="M835 124L804 0L704 78Z" fill="#19435d" stroke="#19435d"></path><path d="M900 82L804 0L835 124Z" fill="#00101c" stroke="#00101c"></path><path d="M834 600L900 600L900 499Z" fill="#246688" stroke="#246688"></path><path d="M900 184L900 82L835 124Z" fill="#00101c" stroke="#00101c"></path><path d="M137 0L0 0L100 119Z" fill="#081a28" stroke="#081a28"></path><path d="M900 82L900 0L804 0Z" fill="#0c2435" stroke="#0c2435"></path></g></svg>